<mxfile host="app.diagrams.net" agent="Mozilla/5.0 (Windows NT 10.0; Win64; x64) AppleWebKit/537.36 (KHTML, like Gecko) Chrome/134.0.0.0 Safari/537.36" version="26.1.1">
  <diagram name="PÃ¡gina-1" id="jBhUaATzPSohvvNEp6ix">
    <mxGraphModel dx="1434" dy="738" grid="1" gridSize="10" guides="1" tooltips="1" connect="1" arrows="1" fold="1" page="1" pageScale="1" pageWidth="827" pageHeight="1169" math="0" shadow="0">
      <root>
        <mxCell id="0" />
        <mxCell id="1" parent="0" />
        <mxCell id="SiGlF4FovIC6NqqdqvDG-15" style="edgeStyle=orthogonalEdgeStyle;rounded=0;orthogonalLoop=1;jettySize=auto;html=1;entryX=0.5;entryY=0;entryDx=0;entryDy=0;" edge="1" parent="1" source="SiGlF4FovIC6NqqdqvDG-1" target="SiGlF4FovIC6NqqdqvDG-5">
          <mxGeometry relative="1" as="geometry" />
        </mxCell>
        <mxCell id="SiGlF4FovIC6NqqdqvDG-1" value="Teacher" style="swimlane;fontStyle=1;align=center;verticalAlign=top;childLayout=stackLayout;horizontal=1;startSize=26;horizontalStack=0;resizeParent=1;resizeParentMax=0;resizeLast=0;collapsible=1;marginBottom=0;whiteSpace=wrap;html=1;" vertex="1" parent="1">
          <mxGeometry x="320" y="70" width="160" height="100" as="geometry" />
        </mxCell>
        <mxCell id="SiGlF4FovIC6NqqdqvDG-2" value="+ name: String" style="text;strokeColor=none;fillColor=none;align=left;verticalAlign=top;spacingLeft=4;spacingRight=4;overflow=hidden;rotatable=0;points=[[0,0.5],[1,0.5]];portConstraint=eastwest;whiteSpace=wrap;html=1;" vertex="1" parent="SiGlF4FovIC6NqqdqvDG-1">
          <mxGeometry y="26" width="160" height="26" as="geometry" />
        </mxCell>
        <mxCell id="SiGlF4FovIC6NqqdqvDG-3" value="" style="line;strokeWidth=1;fillColor=none;align=left;verticalAlign=middle;spacingTop=-1;spacingLeft=3;spacingRight=3;rotatable=0;labelPosition=right;points=[];portConstraint=eastwest;strokeColor=inherit;" vertex="1" parent="SiGlF4FovIC6NqqdqvDG-1">
          <mxGeometry y="52" width="160" height="8" as="geometry" />
        </mxCell>
        <mxCell id="SiGlF4FovIC6NqqdqvDG-4" value="&lt;div&gt;+ Teacher (name : String)&lt;/div&gt;+ toString() : String" style="text;strokeColor=none;fillColor=none;align=left;verticalAlign=top;spacingLeft=4;spacingRight=4;overflow=hidden;rotatable=0;points=[[0,0.5],[1,0.5]];portConstraint=eastwest;whiteSpace=wrap;html=1;" vertex="1" parent="SiGlF4FovIC6NqqdqvDG-1">
          <mxGeometry y="60" width="160" height="40" as="geometry" />
        </mxCell>
        <mxCell id="SiGlF4FovIC6NqqdqvDG-19" style="edgeStyle=orthogonalEdgeStyle;rounded=0;orthogonalLoop=1;jettySize=auto;html=1;" edge="1" parent="1" source="SiGlF4FovIC6NqqdqvDG-5" target="SiGlF4FovIC6NqqdqvDG-9">
          <mxGeometry relative="1" as="geometry" />
        </mxCell>
        <mxCell id="SiGlF4FovIC6NqqdqvDG-5" value="Class" style="swimlane;fontStyle=1;align=center;verticalAlign=top;childLayout=stackLayout;horizontal=1;startSize=26;horizontalStack=0;resizeParent=1;resizeParentMax=0;resizeLast=0;collapsible=1;marginBottom=0;whiteSpace=wrap;html=1;" vertex="1" parent="1">
          <mxGeometry x="280" y="240" width="240" height="110" as="geometry" />
        </mxCell>
        <mxCell id="SiGlF4FovIC6NqqdqvDG-6" value="- teacher: Teacher&lt;div&gt;- course: String&lt;/div&gt;" style="text;strokeColor=none;fillColor=none;align=left;verticalAlign=top;spacingLeft=4;spacingRight=4;overflow=hidden;rotatable=0;points=[[0,0.5],[1,0.5]];portConstraint=eastwest;whiteSpace=wrap;html=1;" vertex="1" parent="SiGlF4FovIC6NqqdqvDG-5">
          <mxGeometry y="26" width="240" height="34" as="geometry" />
        </mxCell>
        <mxCell id="SiGlF4FovIC6NqqdqvDG-7" value="" style="line;strokeWidth=1;fillColor=none;align=left;verticalAlign=middle;spacingTop=-1;spacingLeft=3;spacingRight=3;rotatable=0;labelPosition=right;points=[];portConstraint=eastwest;strokeColor=inherit;" vertex="1" parent="SiGlF4FovIC6NqqdqvDG-5">
          <mxGeometry y="60" width="240" height="8" as="geometry" />
        </mxCell>
        <mxCell id="SiGlF4FovIC6NqqdqvDG-8" value="&lt;div&gt;+ Class (teacher: Teacher, course: String)&lt;/div&gt;+ printInformation(): void" style="text;strokeColor=none;fillColor=none;align=left;verticalAlign=top;spacingLeft=4;spacingRight=4;overflow=hidden;rotatable=0;points=[[0,0.5],[1,0.5]];portConstraint=eastwest;whiteSpace=wrap;html=1;" vertex="1" parent="SiGlF4FovIC6NqqdqvDG-5">
          <mxGeometry y="68" width="240" height="42" as="geometry" />
        </mxCell>
        <mxCell id="SiGlF4FovIC6NqqdqvDG-9" value="LearningIntitution" style="swimlane;fontStyle=1;align=center;verticalAlign=top;childLayout=stackLayout;horizontal=1;startSize=26;horizontalStack=0;resizeParent=1;resizeParentMax=0;resizeLast=0;collapsible=1;marginBottom=0;whiteSpace=wrap;html=1;" vertex="1" parent="1">
          <mxGeometry x="285" y="430" width="230" height="120" as="geometry" />
        </mxCell>
        <mxCell id="SiGlF4FovIC6NqqdqvDG-10" value="- teachers : ArrayList&amp;lt;Teacher&amp;gt;" style="text;strokeColor=none;fillColor=none;align=left;verticalAlign=top;spacingLeft=4;spacingRight=4;overflow=hidden;rotatable=0;points=[[0,0.5],[1,0.5]];portConstraint=eastwest;whiteSpace=wrap;html=1;" vertex="1" parent="SiGlF4FovIC6NqqdqvDG-9">
          <mxGeometry y="26" width="230" height="26" as="geometry" />
        </mxCell>
        <mxCell id="SiGlF4FovIC6NqqdqvDG-11" value="" style="line;strokeWidth=1;fillColor=none;align=left;verticalAlign=middle;spacingTop=-1;spacingLeft=3;spacingRight=3;rotatable=0;labelPosition=right;points=[];portConstraint=eastwest;strokeColor=inherit;" vertex="1" parent="SiGlF4FovIC6NqqdqvDG-9">
          <mxGeometry y="52" width="230" height="8" as="geometry" />
        </mxCell>
        <mxCell id="SiGlF4FovIC6NqqdqvDG-12" value="&lt;div&gt;+LearningIntitution()&lt;/div&gt;+ addTeacher(teacher: Teacher): void&lt;div&gt;+ toString() : String&lt;/div&gt;" style="text;strokeColor=none;fillColor=none;align=left;verticalAlign=top;spacingLeft=4;spacingRight=4;overflow=hidden;rotatable=0;points=[[0,0.5],[1,0.5]];portConstraint=eastwest;whiteSpace=wrap;html=1;" vertex="1" parent="SiGlF4FovIC6NqqdqvDG-9">
          <mxGeometry y="60" width="230" height="60" as="geometry" />
        </mxCell>
        <mxCell id="SiGlF4FovIC6NqqdqvDG-17" value="1" style="text;html=1;align=center;verticalAlign=middle;resizable=0;points=[];autosize=1;strokeColor=none;fillColor=none;" vertex="1" parent="1">
          <mxGeometry x="399" y="210" width="30" height="30" as="geometry" />
        </mxCell>
        <mxCell id="SiGlF4FovIC6NqqdqvDG-18" value="1" style="text;html=1;align=center;verticalAlign=middle;resizable=0;points=[];autosize=1;strokeColor=none;fillColor=none;" vertex="1" parent="1">
          <mxGeometry x="399" y="170" width="30" height="30" as="geometry" />
        </mxCell>
        <mxCell id="SiGlF4FovIC6NqqdqvDG-20" value="*" style="text;html=1;align=center;verticalAlign=middle;resizable=0;points=[];autosize=1;strokeColor=none;fillColor=none;" vertex="1" parent="1">
          <mxGeometry x="399" y="350" width="30" height="30" as="geometry" />
        </mxCell>
        <mxCell id="SiGlF4FovIC6NqqdqvDG-21" value="1" style="text;html=1;align=center;verticalAlign=middle;resizable=0;points=[];autosize=1;strokeColor=none;fillColor=none;" vertex="1" parent="1">
          <mxGeometry x="399" y="400" width="30" height="30" as="geometry" />
        </mxCell>
      </root>
    </mxGraphModel>
  </diagram>
</mxfile>
